<?xml version="1.0" encoding="utf-8"?>
<!-- Generator: Adobe Illustrator 27.2.0, SVG Export Plug-In . SVG Version: 6.00 Build 0)  -->
<svg version="1.1" id="Layer_1" xmlns="http://www.w3.org/2000/svg" xmlns:xlink="http://www.w3.org/1999/xlink" x="0px" y="0px"
	 viewBox="0 0 48 48" style="enable-background:new 0 0 48 48;" xml:space="preserve">
<style type="text/css">
	.st0{fill:#2B7FFF;}
</style>
<g>
	<path class="st0" d="M15.6,17.5H0.9c-0.5,0-0.8,0.3-0.8,0.8V23c0,0.4,0.4,0.8,0.8,0.8h0.8v18c0,0.4,0.4,0.8,0.8,0.8h11.4
		c0.5,0,0.8-0.3,0.8-0.8v-3.1V26.9v-3.1h0.8c0.5,0,0.8-0.3,0.8-0.8v-4.7C16.4,17.9,16,17.5,15.6,17.5z M6.6,32.3v-1.6h4.9v-1.6H6.6
		v-1.6h6.5v10.2H6.6v-3.9h1.6v-1.6H6.6z M13.1,26.1H5.8c-0.5,0-0.8,0.3-0.8,0.8v11.7c0,0.4,0.4,0.8,0.8,0.8h7.3v1.6H3.3V23.7h9.8
		V26.1z M14.7,22.2h-0.8H2.5H1.7v-3.1h13V22.2z"/>
	<path class="st0" d="M26.3,17.6v-5.7c0-0.4-0.4-0.8-0.8-0.8h-0.8v-4h1.6V5.5h-9v1.6h5.7v4h-0.8c-0.5,0-0.8,0.4-0.8,0.8v5.7
		c-1.9,0.4-3.3,2-3.3,3.9v1.6v15.3v3.2c0,0.4,0.4,0.8,0.8,0.8h9.8c0.5,0,0.8-0.4,0.8-0.8v-3.2V23.2v-1.6
		C29.6,19.6,28.2,18,26.3,17.6z M23.1,12.7h1.6v4.8h-1.6V12.7z M22.3,19.2h3.3c1.3,0,2.4,1.1,2.4,2.4v0.8h-8.1v-0.8
		C19.8,20.3,20.9,19.2,22.3,19.2z M28,37.7h-8.1v-1.6h3.3v-1.6h-3.3V24H28V37.7z M19.8,40.9v-1.6H28v1.6H19.8z"/>
	<path class="st0" d="M47.1,16.5H33.4c-0.4,0-0.8,0.4-0.8,0.8v24.4c0,0.4,0.3,0.8,0.8,0.8h13.7c0.4,0,0.8-0.4,0.8-0.8V17.3
		C47.9,16.9,47.6,16.5,47.1,16.5z M46.4,40.9H34.2V18.1h12.2V40.9z"/>
	<path class="st0" d="M12.3,32.5h-2v1h2V32.5z"/>
	<path class="st0" d="M26.5,34.5h-2v2h2V34.5z"/>
	<path class="st0" d="M24,32.5c2,0,3.6-1.6,3.6-3.5c0-1.9-1.6-3.5-3.6-3.5c-2,0-3.6,1.6-3.6,3.5C20.4,30.9,22,32.5,24,32.5z
		 M24,27.2c1,0,1.8,0.8,1.8,1.7c0,1-0.8,1.7-1.8,1.7c-1,0-1.8-0.8-1.8-1.7C22.2,28,23,27.2,24,27.2z"/>
	<path class="st0" d="M38.4,24.5h3.8c1.5,0,2.7-1.1,2.7-2.5s-1.2-2.5-2.7-2.5h-3.8c-1.5,0-2.7,1.1-2.7,2.5S36.9,24.5,38.4,24.5z
		 M43.3,22c0,0.6-0.5,1.1-1.1,1.1H41v-2.1h1.1C42.8,20.9,43.3,21.4,43.3,22z M38.4,20.9h1.1v2.1h-1.1c-0.6,0-1.1-0.5-1.1-1.1
		S37.7,20.9,38.4,20.9z"/>
	<path class="st0" d="M38.4,32.5h3.8c1.5,0,2.7-1.3,2.7-3c0-1.7-1.2-3-2.7-3h-3.8c-1.5,0-2.7,1.3-2.7,3
		C35.7,31.2,36.9,32.5,38.4,32.5z M43.3,29.5c0,0.7-0.5,1.3-1.1,1.3H41v-2.6h1.1C42.8,28.2,43.3,28.8,43.3,29.5z M38.4,28.2h1.1v2.6
		h-1.1c-0.6,0-1.1-0.6-1.1-1.3C37.2,28.8,37.7,28.2,38.4,28.2z"/>
	<path class="st0" d="M38.4,39.5h3.8c1.5,0,2.7-1.3,2.7-3c0-1.7-1.2-3-2.7-3h-3.8c-1.5,0-2.7,1.3-2.7,3
		C35.7,38.2,36.9,39.5,38.4,39.5z M43.3,36.5c0,0.7-0.5,1.3-1.1,1.3H41v-2.6h1.1C42.8,35.2,43.3,35.8,43.3,36.5z M38.4,35.2h1.1v2.6
		h-1.1c-0.6,0-1.1-0.6-1.1-1.3C37.2,35.8,37.7,35.2,38.4,35.2z"/>
</g>
</svg>
