<svg xmlns="http://www.w3.org/2000/svg" aria-hidden="true" overflow="hidden" style="position:absolute;width:0;height:0">
  <defs>
    <symbol id="close_btn" viewBox="0 0 32 32">
      <path d="M18.489 16 31.467 3.022c.711-.711.711-1.778 0-2.489s-1.778-.711-2.489 0L16 13.511 3.022.533c-.711-.711-1.778-.711-2.489 0s-.711 1.778 0 2.489L13.511 16 .533 28.978c-.711.711-.711 1.778 0 2.489s1.778.711 2.489 0L16 18.489l12.978 12.978c.356.356.889.533 1.244.533s.889-.178 1.244-.533c.711-.711.711-1.778 0-2.489L18.488 16z"/>
    </symbol>
    <symbol id="Arrow" viewBox="0 0 36 32">
      <path d="M1.062 17.414c-.781-.781-.781-2.047 0-2.828L13.79 1.858c.781-.781 2.047-.781 2.828 0s.781 2.047 0 2.828L5.304 16l11.314 11.314c.781.781.781 2.047 0 2.828s-2.047.781-2.828 0L1.062 17.414zM36 18H2.476v-4H36v4z"/>
    </symbol>
    <symbol id="facebook" viewBox="0 0 19 32">
      <path d="M18.091.668a41.3124 41.3124 0 0 0-4.476-.23c-4.956 0-8.036 3.157-8.036 8.238v3.45H1.416c-.195 0-.383.078-.521.216s-.216.326-.216.521v5.674c0 .195.078.383.216.521s.326.216.521.216h4.163v11.377c0 .195.078.383.216.521s.326.216.521.216h5.862c.195 0 .383-.078.521-.216s.216-.326.216-.521V19.274h4.15c.179 0 .352-.065.486-.183s.221-.281.245-.458l.732-5.674c.014-.104.005-.21-.026-.31s-.082-.193-.151-.272c-.069-.079-.154-.142-.25-.185s-.199-.066-.304-.066h-4.882V9.239c0-1.429.287-2.026 2.075-2.026h3.005c.195 0 .383-.078.521-.216s.216-.326.216-.521V1.399c0-.179-.065-.352-.183-.486s-.281-.221-.458-.245zm-.833 5.069-2.269.001c-3.179 0-3.547 1.998-3.547 3.5v3.625c0 .195.077.382.215.521s.325.216.52.216h4.784l-.544 4.2h-4.238c-.195 0-.383.078-.521.216s-.216.326-.216.521v11.374H7.053V18.537c0-.195-.078-.383-.216-.521s-.326-.216-.521-.216H2.154v-4.2h4.162c.195 0 .383-.078.521-.216s.216-.326.216-.521V8.675c0-4.235 2.454-6.764 6.562-6.764 1.487 0 2.829.081 3.643.152v3.674z"/>
    </symbol>
    <symbol id="insta" viewBox="0 0 32 32">
      <path d="M16 8.897c-1.405 0-2.778.417-3.946 1.197s-2.079 1.89-2.616 3.188-.678 2.726-.404 4.104c.274 1.378.951 2.643 1.944 3.637s2.259 1.67 3.637 1.944c1.378.274 2.806.133 4.104-.404a7.1023 7.1023 0 0 0 2.305-11.584 7.1035 7.1035 0 0 0-5.023-2.08zm0 12.353c-1.038 0-2.053-.308-2.917-.885s-1.536-1.397-1.934-2.356c-.397-.959-.501-2.015-.299-3.033s.703-1.954 1.437-2.688 1.67-1.234 2.688-1.437c1.018-.203 2.074-.099 3.033.299s1.779 1.07 2.356 1.934c.577.863.885 1.878.885 2.917a5.2648 5.2648 0 0 1-5.25 5.25zM22.794.868H9.206c-2.211 0-4.332.878-5.896 2.442S.868 6.995.868 9.206v13.588c0 2.211.878 4.332 2.442 5.896s3.685 2.442 5.896 2.442h13.588c2.211 0 4.332-.878 5.896-2.442s2.442-3.685 2.442-5.896V9.206c0-2.211-.878-4.332-2.442-5.896S25.005.868 22.794.868zm6.485 21.926c0 1.72-.683 3.369-1.899 4.586s-2.866 1.899-4.586 1.899H9.206c-1.72 0-3.37-.683-4.586-1.899s-1.899-2.866-1.899-4.586V9.206c0-1.72.683-3.37 1.899-4.586s2.866-1.899 4.586-1.899h13.588c1.72 0 3.369.683 4.586 1.899s1.899 2.866 1.899 4.586v13.588zM25.574 7.971c0 .305-.091.604-.26.858s-.411.452-.693.569c-.282.117-.593.148-.892.088s-.575-.207-.791-.423c-.216-.216-.363-.491-.423-.791s-.029-.61.088-.892.315-.523.569-.693c.254-.17.552-.26.858-.26.41 0 .802.163 1.092.452s.452.682.452 1.092z"/>
    </symbol>
    <symbol id="phone" viewBox="0 0 29 32">
      <path d="m26.637 23.305-.182-.227c-1.441-1.821-2.645-2.769-3.678-2.894-.893-.122-1.757.496-2.675 1.131l-.981.613c-.118.059-.234.106-.343.139-.574.162-2.023.258-2.843-.493-.955-.874-2.436-2.472-3.588-3.87-1.1-1.446-2.31-3.249-2.941-4.385-.533-.962-.087-2.307.211-2.806.059-.098.136-.195.221-.29l.865-.799c.013-.013.018-.028.029-.039.008-.008.022-.006.032-.013.781-.659 1.589-1.338 1.7-2.211.13-1.025-.507-2.411-1.95-4.231l-.176-.227C9.445 1.558 8.094-.174 6.153.112 5.39.225 4.708.486 4.005.927c-.007.004-.011.013-.017.017s-.013.004-.018.008l-.979.725c-.01.006-.015.018-.025.027-.007.007-.018.008-.027.015-.113.095-.227.193-.339.294-.993.885-3.142 3.454-1.676 8.205.946 3.069 2.898 6.65 5.657 10.377l-.027.022 1.522 1.896.013-.01c2.992 3.539 6.037 6.275 8.827 7.931 1.862 1.106 3.489 1.471 4.827 1.471 1.761 0 3.023-.633 3.655-1.044l.398-.266c.045-.031.077-.074.109-.113l.867-.652c.01-.008.015-.02.025-.028.004-.004.011-.003.017-.007.616-.563 1.043-1.152 1.34-1.851.769-1.791-.608-3.506-1.518-4.641zm.489 4.202c-.231.543-.568 1.005-1.056 1.453l-1.289.97c-1.168.759-3.664 1.697-7.29-.456-2.79-1.656-5.862-4.456-8.884-8.098l-.818-1.033c-2.846-3.774-4.848-7.389-5.793-10.452-1.228-3.983.319-6.119 1.355-7.042.105-.095.21-.183.314-.272l.004-.004.939-.696c.571-.361 1.1-.563 1.709-.655 1.301-.196 2.359 1.176 3.136 2.173l.182.231c1.613 2.034 1.768 3.002 1.718 3.396-.056.438-.722 1-1.31 1.494l-.083.07c-.003.003-.004.007-.007.01-.004.003-.008.004-.013.007l-.895.827c-.006.006-.008.013-.014.02s-.017.01-.022.017c-.139.155-.258.311-.354.472-.503.841-.977 2.58-.228 3.926.654 1.176 1.898 3.034 3.042 4.535 1.196 1.45 2.72 3.097 3.709 4 .741.676 1.771.903 2.663.903.477 0 .916-.066 1.247-.16.175-.05.356-.123.542-.214.011-.006.017-.015.028-.022.006-.003.014-.001.02-.006l1.039-.65c.034-.022.056-.052.084-.08l.013.014c.64-.444 1.369-.965 1.826-.889.405.049 1.323.438 2.939 2.478l.186.234c.787.981 1.865 2.325 1.362 3.5z"/>
    </symbol>
    <symbol id="burger-menu" viewBox="0 0 32 32">
<path d="M29.333 24.007c0 0.733-0.595 1.327-1.327 1.327h-10.68c-0.733 0-1.327-0.594-1.327-1.327s0.594-1.327 1.327-1.327h10.68c0.733 0 1.327 0.593 1.327 1.327zM29.333 16c0 0.733-0.595 1.327-1.327 1.327h-24.013c-0.733 0-1.327-0.594-1.327-1.327s0.594-1.327 1.327-1.327h24.013c0.733 0 1.327 0.595 1.327 1.327zM28.007 9.32c0.733 0 1.327-0.594 1.327-1.327s-0.594-1.327-1.327-1.327h-16.013c-0.733 0-1.327 0.594-1.327 1.327s0.594 1.327 1.327 1.327h16.013z"></path>
</symbol>
  </defs>
</svg>
